<?xml version="1.0" encoding="UTF-8" standalone="no"?>
<!DOCTYPE svg PUBLIC "-//W3C//DTD SVG 1.1//EN" "http://www.w3.org/Graphics/SVG/1.1/DTD/svg11.dtd">
<svg version="1.1" xmlns="http://www.w3.org/2000/svg" xmlns:xlink="http://www.w3.org/1999/xlink" preserveAspectRatio="xMidYMid meet" viewBox="0 0 640 640" width="640" height="640"><defs><path d="M604.38 16.77L604.38 600.77L58.85 600.77L58.85 16.77L604.38 16.77Z" id="c5aSKLtQvP"></path><path d="M501.85 130.26C465.48 130.26 174.52 130.26 138.15 130.26C113.15 130.26 92.69 152.16 92.69 178.92C92.69 208.12 92.69 441.72 92.69 470.92C92.69 497.69 113.15 519.59 138.15 519.59C174.52 519.59 465.48 519.59 501.85 519.59C526.85 519.59 547.31 497.69 547.31 470.92C547.31 451.46 547.31 354.12 547.31 178.92C533.67 146.48 518.52 130.26 501.85 130.26ZM320 300.59L138.15 178.92L501.85 178.92L320 300.59ZM138.15 470.92L138.15 227.59L320 349.26L501.85 227.59L501.85 470.92L138.15 470.92Z" id="e1AN3uEHT"></path></defs><g><g><g><use xlink:href="#c5aSKLtQvP" opacity="1" fill="#000000" fill-opacity="0"></use><g><use xlink:href="#c5aSKLtQvP" opacity="1" fill-opacity="0" stroke="#000000" stroke-width="1" stroke-opacity="0"></use></g></g><g><use xlink:href="#e1AN3uEHT" opacity="1" fill="#00d1b2" fill-opacity="1"></use><g><use xlink:href="#e1AN3uEHT" opacity="1" fill-opacity="0" stroke="#000000" stroke-width="1" stroke-opacity="0"></use></g></g></g></g></svg>