<?xml version="1.0" encoding="UTF-8" standalone="no"?>
<!DOCTYPE svg PUBLIC "-//W3C//DTD SVG 1.1//EN" "http://www.w3.org/Graphics/SVG/1.1/DTD/svg11.dtd">
<svg version="1.1" xmlns="http://www.w3.org/2000/svg" xmlns:xlink="http://www.w3.org/1999/xlink" preserveAspectRatio="xMidYMid meet" viewBox="0 0 640 640" width="640" height="640"><defs><path d="M240 506.67C106.67 546.67 106.67 440 53.33 426.67M426.67 586.67C426.67 524.75 426.67 490.35 426.67 483.47C428.69 457.74 419.56 432.39 401.6 413.87C485.33 404.53 573.33 372.8 573.33 227.2C573.33 189.97 559.01 154.17 533.33 127.2C545.49 94.63 544.63 58.62 530.93 26.67C530.93 26.67 499.47 17.33 426.67 66.13C365.55 49.57 301.12 49.57 240 66.13C167.2 17.33 135.73 26.67 135.73 26.67C122.04 58.62 121.18 94.63 133.33 127.2C107.47 154.37 93.13 190.49 93.33 228C93.33 372.53 181.33 404.27 265.07 414.67C247.32 433 238.21 458.01 240 483.47C240 490.35 240 524.75 240 586.67" id="a9OgLXsqM"></path></defs><g><g><g><use xlink:href="#a9OgLXsqM" opacity="1" fill="#000000" fill-opacity="0"></use><g><use xlink:href="#a9OgLXsqM" opacity="1" fill-opacity="0" stroke="#00d1b2" stroke-width="12" stroke-opacity="1"></use></g></g></g></g></svg>