<?xml version="1.0" encoding="UTF-8" standalone="no"?>
<!DOCTYPE svg PUBLIC "-//W3C//DTD SVG 1.1//EN" "http://www.w3.org/Graphics/SVG/1.1/DTD/svg11.dtd">
<svg version="1.1" xmlns="http://www.w3.org/2000/svg" xmlns:xlink="http://www.w3.org/1999/xlink" preserveAspectRatio="xMidYMid meet" viewBox="0 0 640 640" width="640" height="640"><defs><path d="M141.33 141.21C132.44 150.27 128 161.75 128 175.64C128 189.21 132.37 200.6 141.11 209.82C149.85 219.03 161.18 223.63 175.11 223.63C175.16 223.63 175.51 223.63 175.56 223.63C190.07 223.63 201.78 219.03 210.67 209.82C219.56 200.6 224 189.21 224 175.64C223.7 161.75 219.26 150.27 210.67 141.21C202.07 132.17 190.67 127.64 176.45 127.64C161.92 127.64 150.22 132.17 141.33 141.21ZM224 512L224 256L128 256L128 512L224 512ZM128 0C57.31 0 0 57.31 0 128C0 166.4 0 473.6 0 512C0 582.69 57.31 640 128 640C166.4 640 473.6 640 512 640C582.69 640 640 582.7 640 512C640 473.6 640 166.4 640 128C640 57.31 582.69 0 512 0C512 0 166.4 0 128 0ZM480 576C448 576 192 576 160 576C106.98 576 64 533.02 64 480C64 448 64 192 64 160C64 106.98 106.98 64 160 64C192 64 448 64 480 64C533.02 64 576 106.98 576 160C576 181.33 576 288 576 480C547.35 544 515.35 576 480 576ZM352 288C352 285.87 352 275.2 352 256L256.01 256L261.01 314.67L256.01 512L352.01 512C352.01 416 352.01 362.67 352.01 352C352.01 336.59 348.23 335.41 356.68 327.11C365.12 318.82 370.71 314.67 383.45 314.67C396.49 314.67 415 319.27 415.01 331.45C415.01 354.64 416.01 365.04 416.01 384C416.01 392.54 416.01 435.2 416.01 512L512.01 512C512.01 422.4 512.01 372.63 512.01 362.67C512.01 327.42 503.19 299.93 485.56 280.23C467.93 260.52 444.74 256 416 256C386.67 256 370.67 259.85 352 288Z" id="d3iXdpbGLa"></path></defs><g><g><g><use xlink:href="#d3iXdpbGLa" opacity="1" fill="#00d1b2" fill-opacity="1"></use><g><use xlink:href="#d3iXdpbGLa" opacity="1" fill-opacity="0" stroke="#000000" stroke-width="1" stroke-opacity="0"></use></g></g></g></g></svg>