<svg width="519" height="139" xmlns="http://www.w3.org/2000/svg">
 <title>svelte-horizontal</title>

 <g>
  <title>background</title>
  <rect fill="none" id="canvas_background" height="602" width="802" y="-1" x="-1"/>
 </g>
 <g>
  <title>Layer 1</title>
  <path id="svg_1" fill="#f9f9fc" d="m172.4428,100.3382a24.0793,24.0793 0 0 1 -13.72,-3.8769a19.8715,19.8715 0 0 1 -8.0107,-10.6094l8.3515,-3.0683a15.4054,15.4054 0 0 0 5.4541,6.6044a14.3656,14.3656 0 0 0 8.2657,2.4288a12.1375,12.1375 0 0 0 7.8818,-2.3858a8.2746,8.2746 0 0 0 2.94,-6.8174a7.4559,7.4559 0 0 0 -0.8095,-3.4511a10.325,10.325 0 0 0 -1.8321,-2.6a12.3611,12.3611 0 0 0 -3.1533,-2.0879q-2.1314,-1.0635 -3.5361,-1.6192q-1.4062,-0.5521 -4.1328,-1.4912q-3.41,-1.1924 -5.1133,-1.874a38.46,38.46 0 0 1 -4.4737,-2.2588a16.5385,16.5385 0 0 1 -4.1757,-3.1523a15.2908,15.2908 0 0 1 -2.5137,-4.1338a14.77,14.77 0 0 1 4.0049,-16.7871q5.1138,-4.5162 13.8906,-4.5166q7.3272,0 12.0576,3.2382a15.6579,15.6579 0 0 1 6.3487,8.6075l-8.1807,2.7265a9.5238,9.5238 0 0 0 -3.9629,-4.3887a13.31,13.31 0 0 0 -6.9443,-1.6621a10.703,10.703 0 0 0 -6.69,1.875a6.2891,6.2891 0 0 0 -2.4287,5.2832a5.5132,5.5132 0 0 0 1.874,4.0909a12.885,12.885 0 0 0 3.92,2.6416q2.0464,0.8524 6.2217,2.3007q2.5547,0.939 3.791,1.4063t3.6221,1.5762a24.997,24.997 0 0 1 3.6641,2.0029a32.1346,32.1346 0 0 1 2.9824,2.4287a12.7235,12.7235 0 0 1 2.6,3.11a17.39,17.39 0 0 1 1.5332,3.8339a17.5828,17.5828 0 0 1 0.64,4.8155q0,8.3524 -5.71,13.08q-5.7095,4.7309 -14.6559,4.7303zm54.6221,-1.0224l-20.4521,-59.6514l9.5449,0l13.5488,41.5856a64.4659,64.4659 0 0 1 1.875,6.8173a64.0335,64.0335 0 0 1 1.875,-6.8173l13.3789,-41.586l9.459,0l-20.3672,59.6518l-8.8623,0zm47.294,0l0,-59.6514l36.9843,0l0,8.3516l-28.1211,0l0,16.3613l18.15,0l0,8.3516l-18.15,0l0,18.2353l29.9952,0l0,8.3516l-38.8584,0zm61.44,0l0,-59.6514l8.8633,0l0,51.13l29.1435,0l0,8.5215l-38.0068,-0.0001zm71.41,-51.13l0,51.13l-8.8632,0l0,-51.13l-16.8716,0l0,-8.5214l42.6074,0l0,8.5215l-16.8726,-0.0001zm35.1934,51.13l0,-59.6514l36.9844,0l0,8.3516l-28.1206,0l0,16.3613l18.15,0l0,8.3516l-18.15,0l0,18.2353l29.9951,0l0,8.3516l-38.8589,0z"/>
  <path id="svg_2" fill="#ff3e00" d="m110.2859,28.3189c-10.4,-14.8851 -30.94,-19.2971 -45.7914,-9.8348l-26.0827,16.6237a29.9232,29.9232 0 0 0 -13.5187,20.0428a31.5143,31.5143 0 0 0 3.1076,20.2318a30.0059,30.0059 0 0 0 -4.4761,11.1829a31.8885,31.8885 0 0 0 5.4472,24.1157c10.4022,14.8865 30.9424,19.2966 45.7915,9.8348l26.0826,-16.6237a29.9182,29.9182 0 0 0 13.5187,-20.0428a31.5276,31.5276 0 0 0 -3.1057,-20.2323a30.0012,30.0012 0 0 0 4.4742,-11.1824a31.88,31.88 0 0 0 -5.4472,-24.1157"/>
  <path id="svg_3" fill="#fff" d="m61.9463,112.0815a20.718,20.718 0 0 1 -22.2363,-8.2426a19.173,19.173 0 0 1 -3.2766,-14.5025a18.1886,18.1886 0 0 1 0.6233,-2.4357l0.4912,-1.4978l1.3362,0.9815a33.6466,33.6466 0 0 0 10.203,5.0978l0.9694,0.2941l-0.0892,0.9675a5.8469,5.8469 0 0 0 1.052,3.8781a6.2388,6.2388 0 0 0 6.6952,2.485a5.7456,5.7456 0 0 0 1.602,-0.7041l26.0828,-16.6218a5.431,5.431 0 0 0 2.4507,-3.631a5.7944,5.7944 0 0 0 -0.9876,-4.3712a6.2435,6.2435 0 0 0 -6.6977,-2.4864a5.7427,5.7427 0 0 0 -1.6,0.7036l-9.9533,6.3449a19.0336,19.0336 0 0 1 -5.2964,2.3259a20.7182,20.7182 0 0 1 -22.237,-8.2427a19.173,19.173 0 0 1 -3.2766,-14.5024a17.9892,17.9892 0 0 1 8.13,-12.0513l26.0811,-16.6232a19.0031,19.0031 0 0 1 5.3,-2.3287a20.718,20.718 0 0 1 22.2365,8.2426a19.1734,19.1734 0 0 1 3.2766,14.5025a18.4,18.4 0 0 1 -0.6233,2.4357l-0.4912,1.4978l-1.3356,-0.98a33.6175,33.6175 0 0 0 -10.2037,-5.1l-0.9693,-0.2942l0.0892,-0.9675a5.8576,5.8576 0 0 0 -1.052,-3.878a6.2388,6.2388 0 0 0 -6.6952,-2.485a5.7456,5.7456 0 0 0 -1.602,0.7041l-26.0833,16.6225a5.422,5.422 0 0 0 -2.4492,3.631a5.7858,5.7858 0 0 0 0.9857,4.3717a6.2435,6.2435 0 0 0 6.6977,2.4864a5.7652,5.7652 0 0 0 1.602,-0.7041l9.952,-6.3425a18.9787,18.9787 0 0 1 5.2958,-2.3278a20.7183,20.7183 0 0 1 22.2369,8.2427a19.173,19.173 0 0 1 3.2766,14.5024a17.9982,17.9982 0 0 1 -8.13,12.0532l-26.0807,16.6208a19.0031,19.0031 0 0 1 -5.3,2.3287"/>
 </g>
</svg>